<mxfile host="65bd71144e">
    <diagram id="fpILPyQut4IDiLjpNxH_" name="General">
        <mxGraphModel dx="671" dy="486" grid="1" gridSize="10" guides="1" tooltips="1" connect="1" arrows="1" fold="1" page="1" pageScale="1" pageWidth="850" pageHeight="1100" math="0" shadow="0">
            <root>
                <mxCell id="0"/>
                <mxCell id="1" parent="0"/>
                <mxCell id="4" value="" style="edgeStyle=none;html=1;" parent="1" source="2" target="3" edge="1">
                    <mxGeometry relative="1" as="geometry"/>
                </mxCell>
                <mxCell id="2" value="API" style="rounded=1;whiteSpace=wrap;html=1;fillColor=#fff2cc;strokeColor=#d6b656;" parent="1" vertex="1">
                    <mxGeometry x="250" y="80" width="120" height="60" as="geometry"/>
                </mxCell>
                <mxCell id="6" value="" style="edgeStyle=none;html=1;" parent="1" source="3" target="5" edge="1">
                    <mxGeometry relative="1" as="geometry"/>
                </mxCell>
                <mxCell id="3" value="INFRASTRUCTURE" style="whiteSpace=wrap;html=1;rounded=1;fillColor=#dae8fc;strokeColor=#6c8ebf;" parent="1" vertex="1">
                    <mxGeometry x="250" y="220" width="120" height="60" as="geometry"/>
                </mxCell>
                <mxCell id="5" value="CORE" style="whiteSpace=wrap;html=1;rounded=1;fillColor=#d5e8d4;strokeColor=#82b366;" parent="1" vertex="1">
                    <mxGeometry x="250" y="360" width="120" height="60" as="geometry"/>
                </mxCell>
            </root>
        </mxGraphModel>
    </diagram>
    <diagram id="bP7DnWd2ooGJMwGN7Qjz" name="Detailed">
        <mxGraphModel dx="671" dy="486" grid="1" gridSize="10" guides="1" tooltips="1" connect="1" arrows="1" fold="1" page="1" pageScale="1" pageWidth="850" pageHeight="1100" math="0" shadow="0">
            <root>
                <mxCell id="0"/>
                <mxCell id="1" parent="0"/>
                <mxCell id="Yzc7w8w0wvEjXRQ44jQY-1" value="v" style="swimlane;startSize=0;dashed=1;fillColor=#f5f5f5;fontColor=#333333;strokeColor=#666666;rounded=0;strokeWidth=2;" parent="1" vertex="1">
                    <mxGeometry x="40" y="40" width="320" height="160" as="geometry">
                        <mxRectangle x="40" y="40" width="50" height="30" as="alternateBounds"/>
                    </mxGeometry>
                </mxCell>
                <mxCell id="Yzc7w8w0wvEjXRQ44jQY-5" value="Controllers" style="rounded=0;whiteSpace=wrap;html=1;fillColor=#1ba1e2;fontColor=#ffffff;strokeColor=#006EAF;" parent="Yzc7w8w0wvEjXRQ44jQY-1" vertex="1">
                    <mxGeometry x="40" y="50" width="90" height="40" as="geometry"/>
                </mxCell>
                <mxCell id="Yzc7w8w0wvEjXRQ44jQY-7" value="Midleware" style="rounded=0;whiteSpace=wrap;html=1;fillColor=#1ba1e2;fontColor=#ffffff;strokeColor=#006EAF;" parent="Yzc7w8w0wvEjXRQ44jQY-1" vertex="1">
                    <mxGeometry x="200" y="110" width="90" height="40" as="geometry"/>
                </mxCell>
                <mxCell id="Yzc7w8w0wvEjXRQ44jQY-6" value="Startup" style="rounded=0;whiteSpace=wrap;html=1;fillColor=#1ba1e2;fontColor=#ffffff;strokeColor=#006EAF;" parent="Yzc7w8w0wvEjXRQ44jQY-1" vertex="1">
                    <mxGeometry x="200" y="50" width="90" height="40" as="geometry"/>
                </mxCell>
                <mxCell id="Yzc7w8w0wvEjXRQ44jQY-8" value="API" style="text;html=1;strokeColor=none;fillColor=none;align=center;verticalAlign=middle;whiteSpace=wrap;rounded=0;fontStyle=1;fontSize=18;" parent="Yzc7w8w0wvEjXRQ44jQY-1" vertex="1">
                    <mxGeometry x="130" y="10" width="60" height="30" as="geometry"/>
                </mxCell>
                <mxCell id="Yzc7w8w0wvEjXRQ44jQY-2" value="v" style="swimlane;startSize=0;dashed=1;rounded=0;strokeWidth=2;" parent="1" vertex="1">
                    <mxGeometry x="500" y="40" width="300" height="160" as="geometry"/>
                </mxCell>
                <mxCell id="Yzc7w8w0wvEjXRQ44jQY-12" value="INFRASTRUCTURE" style="text;html=1;strokeColor=none;fillColor=none;align=center;verticalAlign=middle;whiteSpace=wrap;rounded=0;fontStyle=1;fontSize=18;" parent="Yzc7w8w0wvEjXRQ44jQY-2" vertex="1">
                    <mxGeometry x="120" y="10" width="60" height="30" as="geometry"/>
                </mxCell>
                <mxCell id="Yzc7w8w0wvEjXRQ44jQY-3" value="v" style="swimlane;startSize=0;dashed=1;rounded=0;strokeWidth=2;" parent="1" vertex="1">
                    <mxGeometry x="40" y="320" width="320" height="160" as="geometry"/>
                </mxCell>
                <mxCell id="Yzc7w8w0wvEjXRQ44jQY-11" value="CORE" style="text;html=1;strokeColor=none;fillColor=none;align=center;verticalAlign=middle;whiteSpace=wrap;rounded=0;fontStyle=1;fontSize=18;" parent="Yzc7w8w0wvEjXRQ44jQY-3" vertex="1">
                    <mxGeometry x="130" y="10" width="60" height="30" as="geometry"/>
                </mxCell>
                <mxCell id="Yzc7w8w0wvEjXRQ44jQY-9" value="" style="shape=flexArrow;endArrow=classic;html=1;fontSize=18;exitX=1;exitY=0.5;exitDx=0;exitDy=0;entryX=0;entryY=0.5;entryDx=0;entryDy=0;rounded=0;" parent="1" source="Yzc7w8w0wvEjXRQ44jQY-1" target="Yzc7w8w0wvEjXRQ44jQY-2" edge="1">
                    <mxGeometry width="50" height="50" relative="1" as="geometry">
                        <mxPoint x="320" y="280" as="sourcePoint"/>
                        <mxPoint x="370" y="230" as="targetPoint"/>
                    </mxGeometry>
                </mxCell>
                <mxCell id="Yzc7w8w0wvEjXRQ44jQY-10" value="" style="shape=flexArrow;endArrow=classic;html=1;fontSize=18;exitX=0;exitY=0.75;exitDx=0;exitDy=0;entryX=1;entryY=0;entryDx=0;entryDy=0;rounded=0;" parent="1" source="Yzc7w8w0wvEjXRQ44jQY-2" target="Yzc7w8w0wvEjXRQ44jQY-3" edge="1">
                    <mxGeometry width="50" height="50" relative="1" as="geometry">
                        <mxPoint x="320" y="280" as="sourcePoint"/>
                        <mxPoint x="370" y="230" as="targetPoint"/>
                    </mxGeometry>
                </mxCell>
            </root>
        </mxGraphModel>
    </diagram>
</mxfile>